# xmcd
#
# Track frame offsets:
#	183
#	20790
#	38500
#	71223
#
# Disc length: 1364 seconds
#
# Revision: 0
# Processed by: cddbd v1.5.2PL0 Copyright (c) Steve Scherf et al.
# Submitted via: EasyCDDAExtractor 4.6.9.1
#
DISCID=31055204
DTITLE=Jon Secada - Whipped
DYEAR=1994
DGENRE=Latin
TTITLE0=Whipped(Album Version)
TTITLE1=Whipped(Radio Version-From Amierica)
TTITLE2=Whipped(Mr. Whippy-West End Mixes)
TTITLE3=Whipped(Tree men 'Down Temp' Mix-West End Mixes)
EXTD=
EXTT0=
EXTT1=
EXTT2=
EXTT3=
PLAYORDER=
